<svg viewBox="0 0 140 140" height="140" width="140" xmlns="http://www.w3.org/2000/svg"><g transform="matrix(5.833333333333333,0,0,5.833333333333333,0,0)"><path d="M10.949,20.214c-1.215-1.442-4.422-2.85-9.465-3.013a1,1,0,0,1-.984-1V2.011a1,1,0,0,1,1.018-1C8.058,1.229,11.5,3.544,11.5,5.3c0-1.751,3.864-4.054,9.978-4.288a1,1,0,0,1,1.022,1V14.993" fill="none" stroke="#080808" stroke-linecap="round" stroke-linejoin="round"></path><path d="M11.5 5.301L11.5 16.493" fill="none" stroke="#080808" stroke-linecap="round" stroke-linejoin="round"></path><path d="M9,5.993A24.764,24.764,0,0,0,3.486,4.711" fill="none" stroke="#080808" stroke-linecap="round" stroke-linejoin="round"></path><path d="M14.5,10.493a24.761,24.761,0,0,1,5.515-1.282" fill="none" stroke="#080808" stroke-linecap="round" stroke-linejoin="round"></path><path d="M9,10.493A24.764,24.764,0,0,0,3.486,9.211" fill="none" stroke="#080808" stroke-linecap="round" stroke-linejoin="round"></path><path d="M9,14.493A24.943,24.943,0,0,0,3.435,13.2" fill="none" stroke="#080808" stroke-linecap="round" stroke-linejoin="round"></path><path d="M14.5,5.993A24.894,24.894,0,0,1,20.067,4.7" fill="none" stroke="#080808" stroke-linecap="round" stroke-linejoin="round"></path><path d="M23.5,22.993v-1.1a2.888,2.888,0,0,0-2.747-2.9H18.5v-4.75a1.25,1.25,0,0,0-2.5,0v7.25l-1.521-2.139a1.05,1.05,0,1,0-1.858.978l1.4,2.661" fill="none" stroke="#080808" stroke-linecap="round" stroke-linejoin="round"></path></g></svg>